<svg xmlns="http://www.w3.org/2000/svg" xmlns:xlink="http://www.w3.org/1999/xlink" width="304" height="59" viewBox="0 0 304 59">
    <defs>
        <path id="a" d="M92.625 3.582V6.61c-.397-.465-.936-.698-1.616-.698-.684 0-1.237.272-1.66.814-.422.542-.633 1.26-.633 2.15v.075c0 .888.212 1.608.637 2.16.424.55.972.826 1.645.826.71 0 1.262-.243 1.66-.73l.048.623h.913V3.582h-.994zm-2.507 6.953c-.273-.372-.408-.887-.408-1.546 0-.737.135-1.294.408-1.67.272-.376.651-.563 1.138-.563.616 0 1.072.273 1.37.821v2.669c-.29.565-.75.848-1.38.848-.48 0-.856-.186-1.128-.559zM71.482 11.83h.994V3.582h-.994v8.248zM40.218 4.012v7.818h2.164c.702-.007 1.317-.16 1.845-.457a3.005 3.005 0 0 0 1.219-1.278c.284-.554.426-1.2.426-1.938v-.5c-.003-.72-.147-1.356-.432-1.911a3.05 3.05 0 0 0-1.21-1.283c-.523-.301-1.125-.451-1.805-.451h-2.207zm1.031.848h1.203c.766.007 1.358.257 1.775.749.417.492.625 1.182.625 2.07v.456c0 .913-.22 1.617-.663 2.11-.442.495-1.06.742-1.855.742h-1.085V4.86zm66.516 1.89l-.032-.73h-.94v5.81h.994V7.69a1.75 1.75 0 0 1 .569-.677c.243-.172.526-.257.848-.257.398 0 .69.1.878.3.188.2.284.51.287.93v3.844h.994V7.99c-.011-1.385-.63-2.078-1.858-2.078-.716 0-1.296.28-1.74.838zm-7.116-.467c-.4.247-.71.598-.935 1.052a3.433 3.433 0 0 0-.335 1.536v.07c0 .902.244 1.627.733 2.174.488.548 1.126.822 1.914.822.522 0 .985-.125 1.388-.376.403-.25.712-.6.93-1.05.215-.449.324-.956.324-1.522v-.07c0-.909-.245-1.637-.733-2.185-.489-.548-1.129-.822-1.92-.822-.512 0-.967.124-1.366.37zm.177 4.258c-.3-.39-.449-.907-.449-1.552 0-.726.15-1.285.451-1.675.301-.39.697-.585 1.187-.585.501 0 .903.197 1.205.593.303.395.454.912.454 1.55 0 .711-.148 1.265-.445 1.661-.298.395-.698.593-1.203.593-.501 0-.901-.195-1.2-.585zM83.194 6.15a2.11 2.11 0 0 0-.837.641c-.206.27-.31.55-.31.84h1c0-.254.12-.47.36-.649.24-.179.536-.268.89-.268.405 0 .711.102.919.308.208.206.311.482.311.83v.456h-.966c-.834 0-1.481.168-1.941.502-.46.335-.69.805-.69 1.41 0 .497.183.908.55 1.232.367.324.837.486 1.41.486.64 0 1.192-.24 1.654-.72.035.294.082.498.14.613h1.041v-.086c-.136-.315-.204-.74-.204-1.273V7.797c-.014-.587-.211-1.048-.59-1.382-.38-.335-.905-.503-1.574-.503-.423 0-.81.08-1.163.237zm.04 4.66c-.207-.175-.31-.418-.31-.73 0-.712.608-1.068 1.825-1.068h.778v1.192a1.463 1.463 0 0 1-.606.628c-.28.161-.575.242-.886.242-.326 0-.593-.088-.8-.264zm-7.283-4.526c-.399.247-.71.598-.934 1.052a3.433 3.433 0 0 0-.335 1.536v.07c0 .902.244 1.627.732 2.174.49.548 1.127.822 1.915.822.522 0 .985-.125 1.388-.376.403-.25.713-.6.929-1.05.216-.449.325-.956.325-1.522v-.07c0-.909-.244-1.637-.733-2.185s-1.129-.822-1.92-.822c-.512 0-.967.124-1.367.37zm.178 4.258c-.3-.39-.449-.907-.449-1.552 0-.726.15-1.285.451-1.675.301-.39.697-.585 1.187-.585.501 0 .903.197 1.206.593.302.395.453.912.453 1.55 0 .711-.148 1.265-.445 1.661-.298.395-.698.593-1.203.593-.501 0-.901-.195-1.2-.585zM65.42 6.751l-.033-.731h-.94v5.81h.994V7.69c.136-.28.326-.505.57-.677.243-.172.526-.257.848-.257.397 0 .69.1.878.3.188.2.283.51.287.93v3.844h.993V7.99c-.01-1.385-.63-2.078-1.857-2.078-.716 0-1.297.28-1.74.838zm-16.26-.468c-.4.247-.711.598-.935 1.052a3.436 3.436 0 0 0-.335 1.536v.07c0 .902.244 1.627.732 2.174.49.548 1.127.822 1.915.822.522 0 .985-.125 1.388-.376.402-.25.712-.6.929-1.05.216-.449.325-.956.325-1.522v-.07c0-.909-.245-1.637-.733-2.185-.489-.548-1.129-.822-1.92-.822-.512 0-.967.124-1.367.37zm.177 4.258c-.3-.39-.449-.907-.449-1.552 0-.726.15-1.285.451-1.675.301-.39.696-.585 1.187-.585.501 0 .903.197 1.206.593.302.395.453.912.453 1.55 0 .711-.148 1.265-.445 1.661-.297.395-.698.593-1.203.593-.502 0-.902-.195-1.2-.585zM61.566 6.02l-1.117 4.44-1.38-4.44h-.8l-1.353 4.35-1.144-4.35h-.988l1.686 5.81h.806l1.374-4.403 1.413 4.403h.805l1.692-5.81h-.994z"/>
    </defs>
    <g fill="none" fill-rule="evenodd" transform="translate(-.32)">
        <rect width="303.342" height="58" x=".75" y=".04" fill="#FFF" rx="4"/>
        <g transform="translate(88.944 10.905)">
            <path fill="#004F6C" d="M48.778 31.878l-1.215-3.684H42.32l-1.215 3.684h-2.627l5.057-14.251h2.873l5.057 14.25h-2.686zm-3.872-11.733l-1.994 6.084h4.049l-1.986-6.084h-.069zm13.58 1.086c2.657 0 4.345 2.065 4.345 5.413 0 3.338-1.679 5.402-4.305 5.402-1.521 0-2.707-.731-3.28-1.906h-.049v5.184h-2.459V21.41h2.4v1.808h.05c.592-1.215 1.777-1.986 3.298-1.986zm-.75 8.8c1.59 0 2.577-1.313 2.577-3.387 0-2.065-.988-3.388-2.578-3.388-1.53 0-2.548 1.353-2.558 3.388.01 2.054 1.028 3.387 2.558 3.387zm12.423-8.8c2.657 0 4.346 2.065 4.346 5.413 0 3.338-1.679 5.402-4.306 5.402-1.52 0-2.706-.731-3.279-1.906h-.05v5.184h-2.458V21.41h2.4v1.808h.049c.592-1.215 1.777-1.986 3.298-1.986zm-.75 8.8c1.59 0 2.577-1.313 2.577-3.387 0-2.065-.987-3.388-2.577-3.388-1.531 0-2.548 1.353-2.558 3.388.01 2.054 1.027 3.387 2.558 3.387zm10.39-2.163h2.469c.158 1.314 1.471 2.173 3.21 2.173 1.718 0 2.913-.85 2.913-2.035 0-1.027-.731-1.62-2.529-2.044l-1.846-.435c-2.628-.602-3.872-1.866-3.872-3.9 0-2.529 2.203-4.237 5.304-4.237 3.14 0 5.214 1.698 5.273 4.207h-2.43c-.118-1.333-1.234-2.133-2.863-2.133-1.61 0-2.696.79-2.696 1.975 0 .948.72 1.5 2.469 1.916l1.64.375c2.893.662 4.117 1.857 4.117 3.98 0 2.706-2.172 4.405-5.619 4.405-3.279 0-5.432-1.62-5.54-4.247zm13.51-8.908h2.46v2.45h1.974v1.895h-1.975v5.442c0 .86.395 1.255 1.264 1.255.227 0 .543-.02.701-.05v1.876c-.266.06-.75.1-1.274.1-2.261 0-3.15-.8-3.15-2.835v-5.788h-1.501V21.41h1.5v-2.45zm10.735 13.125c-3.071 0-5.066-2.044-5.066-5.441 0-3.378 2.014-5.452 5.066-5.452s5.067 2.064 5.067 5.452c0 3.397-1.995 5.441-5.067 5.441zm0-1.945c1.56 0 2.568-1.264 2.568-3.496 0-2.222-1.007-3.497-2.568-3.497-1.55 0-2.568 1.275-2.568 3.497 0 2.232 1.008 3.496 2.568 3.496zm6.647 1.738V21.409h2.36v1.827h.05c.355-1.274 1.274-2.005 2.508-2.005.316 0 .593.06.77.1v2.221c-.207-.079-.582-.138-.997-.138-1.393 0-2.232.899-2.232 2.37v6.094h-2.46zm11.466-8.78c-1.383 0-2.38 1.057-2.48 2.518h4.89c-.05-1.481-.998-2.518-2.41-2.518zm2.42 5.649h2.3c-.315 1.975-2.152 3.338-4.631 3.338-3.14 0-5.037-2.064-5.037-5.402 0-3.308 1.916-5.491 4.938-5.491 2.973 0 4.83 2.064 4.83 5.244v.8h-7.319v.148c0 1.68 1.027 2.805 2.637 2.805 1.146 0 2.015-.573 2.282-1.442zM25.247 29.12c-1.392 2.027-2.832 4.042-5.106 4.084-2.238.042-2.955-1.32-5.509-1.32-2.556 0-3.355 1.278-5.468 1.362-2.195.082-3.864-2.19-5.268-4.207-2.868-4.125-5.056-11.665-2.112-16.753 1.457-2.526 4.069-4.125 6.9-4.168 2.155-.039 4.191 1.447 5.508 1.447 1.319 0 3.79-1.784 6.389-1.522 1.087.044 4.14.436 6.1 3.292-.154.101-3.643 2.122-3.6 6.332.042 5.03 4.426 6.7 4.477 6.723-.04.119-.701 2.387-2.311 4.73M15.7 2.518C16.904 1.114 18.937.07 20.615 0c.214 1.95-.573 3.903-1.738 5.31-1.166 1.404-3.075 2.499-4.948 2.353-.255-1.908.69-3.898 1.771-5.145"/>
            <mask id="b" fill="#fff">
                <use xlink:href="#a"/>
            </mask>
            <path fill="#004F6C" d="M35.458 16.698h80.665V-1.18H35.458z" mask="url(#b)"/>
        </g>
    </g>
</svg>
