<svg xmlns="http://www.w3.org/2000/svg" xmlns:xlink="http://www.w3.org/1999/xlink" width="304" height="59" viewBox="0 0 304 59">
    <defs>
        <path id="a" d="M52.59.005v3.028c-.397-.465-.935-.698-1.615-.698-.684 0-1.238.271-1.66.814-.422.542-.633 1.259-.633 2.15v.075c0 .888.212 1.608.636 2.16.424.55.973.826 1.646.826.709 0 1.261-.243 1.659-.73l.048.622h.913V.005h-.993zm-2.507 6.953c-.272-.372-.408-.887-.408-1.546 0-.737.136-1.294.408-1.67.272-.376.651-.564 1.138-.564.616 0 1.072.274 1.37.822v2.668c-.29.566-.75.85-1.38.85-.48 0-.856-.187-1.128-.56zM31.448 8.252h.993V.005h-.993v8.247zM.184.434v7.818h2.164c.701-.007 1.316-.159 1.844-.456a3.005 3.005 0 0 0 1.219-1.278c.285-.555.427-1.2.427-1.938v-.5c-.004-.72-.148-1.357-.432-1.911A3.05 3.05 0 0 0 4.194.885c-.522-.3-1.123-.45-1.804-.45H.184zm1.03.849h1.203c.767.007 1.358.256 1.775.749.417.492.626 1.182.626 2.07v.456c0 .913-.222 1.617-.664 2.11-.442.495-1.06.742-1.855.742H1.215V1.283zm66.516 1.89l-.032-.73h-.94v5.81h.994v-4.14a1.75 1.75 0 0 1 .57-.677c.243-.172.525-.258.848-.258.397 0 .69.1.877.301.188.2.284.51.288.929v3.844h.993V4.413c-.01-1.385-.63-2.078-1.858-2.078-.716 0-1.296.28-1.74.838zm-7.116-.467c-.4.247-.71.597-.934 1.052a3.433 3.433 0 0 0-.336 1.536v.07c0 .902.244 1.626.733 2.174s1.127.822 1.914.822c.523 0 .985-.125 1.388-.376.403-.25.713-.6.93-1.05.216-.45.324-.956.324-1.522v-.07c0-.91-.244-1.637-.733-2.185s-1.129-.822-1.92-.822c-.512 0-.967.124-1.366.37zm.177 4.258c-.299-.39-.448-.908-.448-1.552 0-.727.15-1.285.45-1.675.302-.39.697-.586 1.188-.586.5 0 .902.198 1.205.594.303.395.454.912.454 1.549 0 .712-.149 1.266-.446 1.662-.297.395-.698.593-1.203.593-.501 0-.901-.195-1.2-.585zM43.16 2.57a2.11 2.11 0 0 0-.838.642c-.206.27-.309.55-.309.84h1c0-.254.12-.47.359-.65.24-.178.537-.268.891-.268.405 0 .71.103.918.309.208.206.312.482.312.83v.456h-.967c-.834 0-1.48.167-1.94.502-.46.335-.69.805-.69 1.41 0 .497.183.908.55 1.232.366.324.836.486 1.409.486.64 0 1.192-.24 1.654-.72.036.294.082.498.14.612h1.042v-.085c-.137-.315-.205-.74-.205-1.273V4.22c-.014-.587-.21-1.048-.59-1.383-.38-.335-.904-.502-1.574-.502-.422 0-.81.079-1.162.236zm.04 4.661c-.208-.175-.311-.418-.311-.73 0-.712.608-1.069 1.825-1.069h.779v1.193a1.463 1.463 0 0 1-.607.628c-.28.16-.574.241-.886.241-.326 0-.592-.087-.8-.263zm-7.283-4.526c-.4.247-.71.597-.934 1.052a3.433 3.433 0 0 0-.336 1.536v.07c0 .902.244 1.626.733 2.174s1.127.822 1.914.822c.523 0 .986-.125 1.388-.376.403-.25.713-.6.93-1.05.216-.45.324-.956.324-1.522v-.07c0-.91-.244-1.637-.733-2.185s-1.128-.822-1.92-.822c-.511 0-.967.124-1.366.37zm.177 4.258c-.299-.39-.448-.908-.448-1.552 0-.727.15-1.285.45-1.675.302-.39.697-.586 1.188-.586.5 0 .903.198 1.205.594.302.395.454.912.454 1.549 0 .712-.149 1.266-.446 1.662-.297.395-.698.593-1.203.593-.5 0-.901-.195-1.2-.585zM25.386 3.173l-.032-.73h-.94v5.81h.994v-4.14c.136-.28.325-.505.569-.677.243-.172.526-.258.848-.258.397 0 .69.1.878.301.188.2.284.51.288.929v3.844h.993V4.413c-.01-1.385-.63-2.078-1.858-2.078-.716 0-1.296.28-1.74.838zm-16.26-.467c-.4.247-.71.597-.935 1.052a3.436 3.436 0 0 0-.335 1.536v.07c0 .902.244 1.626.733 2.174.488.548 1.126.822 1.914.822.523 0 .986-.125 1.388-.376.403-.25.712-.6.93-1.05.216-.45.324-.956.324-1.522v-.07c0-.91-.244-1.637-.733-2.185-.488-.548-1.129-.822-1.92-.822-.511 0-.967.124-1.366.37zm.177 4.258c-.299-.39-.448-.908-.448-1.552 0-.727.15-1.285.45-1.675.302-.39.697-.586 1.187-.586.502 0 .903.198 1.206.594.303.395.454.912.454 1.549 0 .712-.149 1.266-.446 1.662-.297.395-.698.593-1.203.593-.501 0-.901-.195-1.2-.585zm12.228-4.521l-1.116 4.44-1.38-4.44h-.8L16.88 6.792l-1.143-4.35h-.988l1.686 5.81h.805l1.375-4.403 1.412 4.403h.806l1.69-5.81h-.993z"/>
    </defs>
    <g fill="none" fill-rule="evenodd" transform="translate(-.5)">
        <rect width="303.342" height="58" x=".588" y=".04" fill="#FFF" rx="4"/>
        <g transform="translate(127.78 12.706)">
            <mask id="b" fill="#fff">
                <use xlink:href="#a"/>
            </mask>
            <path fill="#004F6C" d="M-4.577 13.12h80.666V-4.755H-4.577z" mask="url(#b)"/>
        </g>
        <path fill="#004F6C" d="M192.376 36.781c0 1.449-.321 2.599-.963 3.45-.64.85-1.5 1.275-2.577 1.275-1.272 0-2.245-.447-2.921-1.34v4.743h-1.022v-12.87h.953l.052 1.314c.67-.99 1.64-1.486 2.912-1.486 1.112 0 1.983.42 2.616 1.263.633.842.95 2.01.95 3.505v.146zm-1.031-.18c0-1.186-.244-2.123-.73-2.81-.487-.687-1.166-1.03-2.037-1.03-.63 0-1.17.151-1.623.455-.453.303-.8.744-1.04 1.323v4.459c.246.532.598.939 1.057 1.22.458.28 1 .42 1.623.42.865 0 1.54-.345 2.024-1.035s.726-1.69.726-3.002zm3.428 4.734h1.03V28.138h-1.03v13.197zm9.691 0c-.103-.293-.17-.725-.198-1.298-.36.47-.82.832-1.379 1.087a4.221 4.221 0 0 1-1.774.382c-.893 0-1.616-.249-2.169-.747-.553-.498-.83-1.128-.83-1.89 0-.905.377-1.621 1.13-2.148.754-.527 1.803-.79 3.15-.79h1.864v-1.057c0-.665-.205-1.187-.615-1.568-.41-.381-1.006-.572-1.791-.572-.716 0-1.309.184-1.778.55-.47.367-.705.808-.705 1.323l-1.03-.008c0-.739.343-1.38 1.03-1.92.688-.542 1.532-.812 2.535-.812 1.036 0 1.854.259 2.452.777.599.518.907 1.242.924 2.17v4.398c0 .9.095 1.573.284 2.02v.103h-1.1zm-3.23-.74c.687 0 1.301-.165 1.842-.498a2.933 2.933 0 0 0 1.182-1.331V36.72h-1.839c-1.025.011-1.827.199-2.405.563-.58.363-.868.863-.868 1.499 0 .521.193.953.58 1.297.386.344.889.516 1.507.516zm9.734-.738l2.715-7.818h1.108l-3.97 10.876-.206.482c-.51 1.128-1.297 1.692-2.362 1.692-.247 0-.51-.04-.79-.12l-.01-.85.533.05c.505 0 .912-.124 1.225-.373.312-.25.577-.677.794-1.285l.456-1.254-3.506-9.218h1.126l2.887 7.818zM140.18 34.669c-1.904.004-3.809.003-5.713.004-.073 0-.146.009-.223.014v1.826h4.353c-.126.905-.4 1.702-1.058 2.32-1.302 1.225-2.852 1.524-4.535 1.098-2.44-.618-3.903-2.994-3.483-5.562.481-2.948 3.609-4.752 6.402-3.694a5.014 5.014 0 0 1 1.592.992l1.296-1.293c-.074-.067-.146-.135-.219-.2-2.202-1.988-5.415-2.076-7.776-.705-3.623 2.106-4.5 6.833-1.794 10.02 1.718 2.023 3.96 2.77 6.569 2.332 1.85-.31 3.27-1.3 4.177-2.947.686-1.245.827-2.607.673-4.007-.02-.172-.107-.198-.26-.198M166.066 39.215c-.908 1.371-2.845 1.357-3.783-.027-.627-.926-.618-2.272.045-3.171.565-.766 1.328-1.124 2.278-.956.927.164 1.481.778 1.763 1.644.098.302.122.626.153.794-.018.713-.142 1.242-.456 1.716zm.304-5.62v.696c-.054-.041-.08-.056-.1-.076-.824-.822-1.83-1.048-2.935-.829-1.89.376-3.307 2.05-3.415 3.983-.11 1.953 1.084 3.774 2.913 4.366 1.274.412 2.462.27 3.454-.728.017-.017.05-.018.119-.041-.028.448-.022.87-.087 1.282-.115.732-.465 1.32-1.172 1.642a2.344 2.344 0 0 1-2.905-.76c-.125-.172-.226-.36-.347-.554l-1.632.68c.047.105.081.189.122.269.803 1.58 2.44 2.457 4.21 2.259 1.065-.12 1.997-.506 2.678-1.37.606-.767.88-1.668.89-2.624.028-2.684.018-5.368.021-8.052 0-.044-.007-.089-.011-.143h-1.803zM156.739 39.37c-.706.862-1.883 1.098-2.884.607-.997-.489-1.365-1.336-1.406-2.241.019-.956.28-1.672.935-2.176.702-.54 1.503-.71 2.354-.39.882.331 1.388 1 1.556 1.916.153.838-.007 1.614-.555 2.284m-1.809-6.057c-2.491-.003-4.375 1.844-4.38 4.297-.006 2.453 1.875 4.325 4.351 4.33 2.45.006 4.346-1.875 4.35-4.313.003-2.433-1.878-4.31-4.32-4.314M146.94 39.77a2.343 2.343 0 0 1-3.31-.523c-.694-.96-.687-2.39.042-3.298.651-.81 1.504-1.092 2.514-.84.899.223 1.617 1.073 1.748 2.036.022.159.034.319.046.43-.027.92-.323 1.664-1.04 2.195m-1.381-6.456c-2.453-.004-4.325 1.851-4.334 4.293-.008 2.435 1.87 4.328 4.3 4.334 2.455.005 4.343-1.868 4.346-4.312.004-2.441-1.866-4.312-4.312-4.315M175.548 35.062c.868-.236 1.786.114 2.105.834l-3.81 1.582c-.128-1.036.656-2.131 1.705-2.416m.118 5.114c-.716-.145-1.196-.59-1.525-1.244l5.748-2.381c-.218-.612-.461-1.168-.83-1.664-1.242-1.675-3.474-2.081-5.226-.948-1.49.964-2.211 2.87-1.782 4.712.546 2.342 2.83 3.737 5.196 3.17 1.081-.26 1.913-.878 2.569-1.796l-1.467-.98c-.86 1.182-1.86 1.297-2.683 1.13M169.306 41.663h1.83v-12.61h-1.83zM89.74 40.738v-25.31c0-.884.512-1.648 1.255-2.01l14.64 14.66L90.99 42.744a2.233 2.233 0 0 1-1.25-2.006zm20.54-8.01l-16.008 9.256 12.625-12.643 3.383 3.388zm4.976-6.42c.533.408.877 1.051.877 1.775a2.23 2.23 0 0 1-.853 1.755l-3.4 1.966-3.72-3.726 3.718-3.723 3.378 1.953zM94.281 14.182l15.997 9.248-3.38 3.385L94.28 14.182z"/>
    </g>
</svg>
