<svg xmlns="http://www.w3.org/2000/svg" width="23" height="16" viewBox="0 0 23 16">
    <path fill="#38B9DB" fill-rule="evenodd" d="M22.052 2.093A1.823 1.823 0 0 0 20.205.247H2.552A1.823 1.823 0 0 0 .706 2.093v11.308c0 1.038.807 1.846 1.846 1.846h17.653a1.823 1.823 0 0 0 1.847-1.846V2.093zM2.725 3.42c0-.462.403-.865.865-.865h9.808c.461 0 .865.403.865.865a.887.887 0 0 1-.865.865H3.59a.887.887 0 0 1-.865-.865zm11.134 10.154a2.955 2.955 0 0 1-2.942-2.942c0-1.616 1.327-2.885 2.942-2.885a2.955 2.955 0 0 1 2.943 2.942c0 1.616-1.327 2.885-2.943 2.885zm6.346-2.885a2.955 2.955 0 0 1-2.942 2.943c-.173 0-.404 0-.577-.058.75-.75 1.154-1.73 1.154-2.885 0-1.154-.461-2.134-1.154-2.884.173-.058.346-.058.577-.058a2.918 2.918 0 0 1 2.942 2.942z"/>
</svg>
