<svg xmlns="http://www.w3.org/2000/svg" width="22" height="20" viewBox="0 0 22 20">
    <path fill="#38B9DB" fill-rule="evenodd" d="M10.742 14.236a.458.458 0 1 1 .422.814c-.42.218-.67.494-.67.74s.25.522.67.74c.751.389 1.165.94 1.165 1.553s-.414 1.164-1.165 1.553a.46.46 0 0 1-.422-.814c.42-.217.67-.493.67-.739s-.25-.522-.67-.74c-.75-.389-1.165-.94-1.165-1.553 0-.612.414-1.164 1.165-1.554zm-2.86-.013c.186-.086.417-.021.513.142.097.163.024.365-.163.45-.348.157-.556.358-.556.537 0 .179.208.38.556.537.625.283.968.684.968 1.13 0 .445-.343.846-.968 1.129a.421.421 0 0 1-.175.037.392.392 0 0 1-.338-.18c-.097-.163-.024-.364.163-.449.348-.158.556-.359.556-.537 0-.179-.208-.38-.556-.538-.625-.283-.968-.684-.968-1.129 0-.445.343-.846.968-1.13zm5.415 0c.187-.086.417-.021.514.142.097.163.023.365-.163.45-.349.157-.557.358-.557.537 0 .179.208.38.557.537.624.283.968.684.968 1.13 0 .445-.344.846-.968 1.129a.42.42 0 0 1-.175.037.392.392 0 0 1-.339-.18c-.097-.163-.024-.364.163-.449.348-.158.556-.359.556-.537 0-.179-.207-.38-.556-.538-.624-.283-.968-.684-.968-1.129 0-.445.344-.846.968-1.13zM19.806.527c.754 0 1.368.658 1.368 1.467v9.783c0 .809-.614 1.468-1.368 1.468H1.478c-.754 0-1.368-.659-1.368-1.468V1.994C.11 1.185.724.527 1.478.527zm-.913 9.783H2.391c-.253 0-.457.218-.457.489 0 .27.204.489.457.489h16.502c.253 0 .456-.219.456-.49 0-.27-.203-.488-.456-.488zm0-1.957H2.391c-.253 0-.457.219-.457.49 0 .27.204.488.457.488h16.502c.253 0 .456-.218.456-.489 0-.27-.203-.489-.456-.489zm-3.275-4.402H11.97c-.252 0-.456.218-.456.489 0 .27.204.489.456.489h3.65c.252 0 .455-.219.455-.49 0-.27-.203-.488-.456-.488z"/>
</svg>
