<svg xmlns="http://www.w3.org/2000/svg" width="23" height="20" viewBox="0 0 23 20">
    <path fill="#38B9DB" fill-rule="evenodd" d="M19.713.897H2.537c-1.164 0-2.11.947-2.11 2.11v14.579c0 1.164.946 2.11 2.11 2.11h17.176c1.164 0 2.111-.946 2.111-2.11V3.008c0-1.164-.947-2.111-2.11-2.111zM7.26 3.504c1.065 0 1.933.867 1.933 1.933a1.935 1.935 0 0 1-1.933 1.932 1.935 1.935 0 0 1-1.934-1.932c0-1.066.868-1.933 1.934-1.933zm3.866 10.268a.483.483 0 0 1-.483.483h-.967v2.597a.483.483 0 0 1-.483.483H5.325a.483.483 0 0 1-.483-.483v-2.597h-.967a.483.483 0 0 1-.483-.483V9.91c0-.575.337-1.095.858-1.324.763-.334 1.904-.733 3.009-.733 1.104 0 2.245.399 3.008.733.521.23.858.749.858 1.324v3.862zm8.025 1.242l-2.111 2.111a.526.526 0 0 1-.746 0l-2.111-2.11a.529.529 0 0 1 .373-.901h4.221a.527.527 0 0 1 .374.9zm.114-3.337a.527.527 0 0 1-.487.326h-4.222a.527.527 0 0 1-.373-.901l2.11-2.111a.527.527 0 0 1 .747 0l2.11 2.11c.151.152.197.379.115.576z"/>
</svg>
