<svg xmlns="http://www.w3.org/2000/svg" width="90" height="90" viewBox="0 0 90 90">
    <g fill="none" fill-rule="evenodd">
        <circle cx="44.903" cy="44.903" r="44.416" fill="#30C34B"/>
        <path fill="#FFF" d="M60.768 39.349L43.123 56.993c-.75.75-1.747 1.163-2.808 1.163-1.062 0-2.06-.413-2.809-1.163L28.514 48c-.751-.751-1.163-1.749-1.163-2.81s.412-2.059 1.163-2.809c.75-.75 1.747-1.163 2.808-1.163 1.061 0 2.059.414 2.809 1.163l6.183 6.185L55.15 33.731c.75-.75 1.748-1.164 2.81-1.164 1.06 0 2.057.414 2.807 1.164 1.55 1.55 1.55 4.068.001 5.618z"/>
    </g>
</svg>
