<svg xmlns="http://www.w3.org/2000/svg" width="23" height="21" viewBox="0 0 23 21">
    <path fill="#38B9DB" fill-rule="evenodd" d="M20.504 3.678H13.91l2.341-2.557a.706.706 0 1 0-1.206-.735l-2.79 3.292h-1.738L7.727.386a.706.706 0 0 0-1.206.735l2.342 2.557H2.268A1.55 1.55 0 0 0 .721 5.226v12.773a1.55 1.55 0 0 0 1.547 1.548h18.236a1.55 1.55 0 0 0 1.548-1.548V5.226a1.55 1.55 0 0 0-1.548-1.548zM15.68 16.143a.841.841 0 0 1-.842.841H4.073a.841.841 0 0 1-.841-.841v-9.06c0-.465.376-.842.84-.842h10.766c.465 0 .842.377.842.841v9.06zm3.113-.269c-.805 0-1.46-.655-1.46-1.46 0-.805.655-1.46 1.46-1.46.805 0 1.46.655 1.46 1.46 0 .805-.655 1.46-1.46 1.46zm0-5.604c-.805 0-1.46-.654-1.46-1.46 0-.804.655-1.459 1.46-1.459.805 0 1.46.655 1.46 1.46 0 .805-.655 1.46-1.46 1.46z"/>
</svg>
